<svg xmlns="http://www.w3.org/2000/svg" viewBox="-2.75 -2.75 5.5 2.82" preserveAspectRatio="xMidYMax meet"><defs><clipPath id="p0"><polygon points="0.000000,0.000000 -0.500000,-1.866025 0.500000,-1.866025"/></clipPath><mask id="holes" maskUnits="userSpaceOnUse" x="-10" y="-10" width="20" height="20"><rect x="-10" y="-10" width="20" height="20" fill="white"/><polygon points="0.000000,0.000000 -0.330000,-1.231577 0.330000,-1.231577" fill="black"/></mask></defs><g mask="url(#holes)"><g clip-path="url(#p0)"><g transform="translate(-0.500000 -1.866025) scale(0.01000000 0.01866025)"><path xmlns:ns0="http://www.w3.org/2000/svg" d="M 77.2 78.1 L 85.4 75.7 L 83.6 75.6 L 93.8 67.0 L 94.9 60.0" stroke="#d95450" stroke-width="6.4" opacity="0.80" />
<path xmlns:ns0="http://www.w3.org/2000/svg" d="M 41.9 18.8 L 52.6 22.0 L 58.5 14.0 L 68.8 15.7 L 74.4 17.5" stroke="#d95450" stroke-width="7.4" opacity="0.80" />
<path xmlns:ns0="http://www.w3.org/2000/svg" d="M 18.5 85.1 L 31.1 83.8 L 36.3 87.1 L 45.7 91.9 L 56.4 98.3" stroke="#d95450" stroke-width="4.4" opacity="0.64" />
<path xmlns:ns0="http://www.w3.org/2000/svg" d="M 58.0 45.6 L 67.4 48.4 L 72.4 45.5 L 80.1 59.0 L 91.6 62.7" stroke="#d95450" stroke-width="7.4" opacity="0.86" />
<path xmlns:ns0="http://www.w3.org/2000/svg" d="M 21.7 17.5 L 18.0 24.8 L 13.2 27.5 L 7.1 38.2 L -2.9 36.0" stroke="#d95450" stroke-width="6.1" opacity="0.84" />
<path xmlns:ns0="http://www.w3.org/2000/svg" d="M 49.6 1.3 L 57.5 2.4 L 54.7 15.0 L 57.4 21.0 L 66.0 22.5" stroke="#d95450" stroke-width="6.0" opacity="0.91" />
<path xmlns:ns0="http://www.w3.org/2000/svg" d="M 77.3 16.7 L 76.6 11.9 L 60.9 20.1 L 62.1 19.2 L 55.6 10.8" stroke="#d95450" stroke-width="4.7" opacity="0.83" />
<path xmlns:ns0="http://www.w3.org/2000/svg" d="M 25.2 37.0 L 28.3 41.8 L 27.9 41.9 L 33.5 44.2 L 40.3 54.0" stroke="#d95450" stroke-width="8.3" opacity="0.90" />
<path xmlns:ns0="http://www.w3.org/2000/svg" d="M 84.7 70.2 L 75.0 72.7 L 68.2 80.4 L 50.6 88.4 L 46.8 89.8" stroke="#d95450" stroke-width="4.1" opacity="0.83" />
<path xmlns:ns0="http://www.w3.org/2000/svg" d="M 24.8 4.1 L 31.7 2.8 L 37.4 10.1 L 48.5 15.8 L 52.3 6.8" stroke="#d95450" stroke-width="7.4" opacity="0.89" />
<path xmlns:ns0="http://www.w3.org/2000/svg" d="M 2.3 28.8 L -3.3 19.0 L -8.1 22.6 L -14.6 15.9 L -18.8 2.4" stroke="#d95450" stroke-width="8.2" opacity="0.88" />
<path xmlns:ns0="http://www.w3.org/2000/svg" d="M -2.1 83.0 L -0.6 91.9 L 4.2 88.9 L 12.2 89.3 L 20.5 99.9" stroke="#d95450" stroke-width="8.0" opacity="0.74" />
<path xmlns:ns0="http://www.w3.org/2000/svg" d="M 15.6 68.1 L 22.4 66.9 L 34.9 71.6 L 42.8 80.3 L 45.9 77.9" stroke="#d95450" stroke-width="4.9" opacity="0.87" />
<path xmlns:ns0="http://www.w3.org/2000/svg" d="M 4.1 70.8 L 0.5 78.0 L -13.3 80.2 L -18.1 82.3 L -24.2 92.1" stroke="#d95450" stroke-width="7.2" opacity="0.72" />
<path xmlns:ns0="http://www.w3.org/2000/svg" d="M 77.6 96.6 L 83.3 98.7 L 99.7 97.6 L 109.7 106.0 L 109.4 98.3" stroke="#d95450" stroke-width="5.1" opacity="0.92" />
<path xmlns:ns0="http://www.w3.org/2000/svg" d="M 75.6 61.8 L 67.5 66.2 L 58.3 54.1 L 41.6 57.6 L 36.5 53.5" stroke="#d95450" stroke-width="7.5" opacity="0.91" />
<path xmlns:ns0="http://www.w3.org/2000/svg" d="M 89.7 7.3 L 84.8 5.0 L 77.2 8.0 L 75.6 13.5 L 64.4 13.3" stroke="#d95450" stroke-width="8.2" opacity="0.88" />
<path xmlns:ns0="http://www.w3.org/2000/svg" d="M 96.4 4.6 L 82.7 -4.3 L 74.5 -3.3 L 62.3 -10.4 L 60.4 -10.1" stroke="#d95450" stroke-width="5.2" opacity="0.86" />
<path xmlns:ns0="http://www.w3.org/2000/svg" d="M 10.9 18.4 L 7.9 21.5 L -3.6 13.6 L -11.2 22.1 L -11.1 14.9" stroke="#d95450" stroke-width="7.8" opacity="0.76" />
<path xmlns:ns0="http://www.w3.org/2000/svg" d="M 42.6 95.3 L 49.1 102.2 L 58.6 103.1 L 66.0 102.3 L 69.2 109.4" stroke="#d95450" stroke-width="5.2" opacity="0.85" />
<path xmlns:ns0="http://www.w3.org/2000/svg" d="M 40.6 91.2 L 30.1 91.9 L 20.6 86.3 L 12.4 76.9 L -0.2 75.8" stroke="#d95450" stroke-width="5.7" opacity="0.93" />
<path xmlns:ns0="http://www.w3.org/2000/svg" d="M 22.4 3.7 L 14.9 7.8 L 16.3 17.0 L 13.8 12.0 L 11.0 22.4" stroke="#d95450" stroke-width="6.2" opacity="0.65" />
<path xmlns:ns0="http://www.w3.org/2000/svg" d="M 32.3 85.7 L 38.9 93.1 L 56.4 91.7 L 63.7 96.5 L 71.3 104.1" stroke="#d95450" stroke-width="7.6" opacity="0.71" />
<path xmlns:ns0="http://www.w3.org/2000/svg" d="M -4.4 6.2 L 0.6 4.3 L 14.3 -1.1 L 22.4 -0.6 L 26.2 -14.1" stroke="#d95450" stroke-width="7.5" opacity="0.78" />
<path xmlns:ns0="http://www.w3.org/2000/svg" d="M 63.7 16.9 L 78.3 14.3 L 80.0 13.4 L 97.3 18.4 L 107.8 16.8" stroke="#d95450" stroke-width="7.1" opacity="0.68" />
<path xmlns:ns0="http://www.w3.org/2000/svg" d="M -3.2 24.6 L -12.7 16.3 L -14.2 19.8 L -19.2 17.5 L -25.2 4.2" stroke="#d95450" stroke-width="5.8" opacity="0.77" />
<path xmlns:ns0="http://www.w3.org/2000/svg" d="M 104.6 81.3 L 109.9 76.0 L 112.5 85.8 L 122.4 75.9 L 127.9 73.3" stroke="#d95450" stroke-width="6.7" opacity="0.68" />
<path xmlns:ns0="http://www.w3.org/2000/svg" d="M -14.7 84.0 L -23.5 81.3 L -39.2 81.1 L -45.0 90.0 L -51.7 82.2" stroke="#d95450" stroke-width="5.8" opacity="0.90" />
<path xmlns:ns0="http://www.w3.org/2000/svg" d="M 25.5 69.6 L 17.3 71.7 L 8.2 73.4 L -8.4 67.2 L -13.3 76.6" stroke="#d95450" stroke-width="5.3" opacity="0.78" />
<path xmlns:ns0="http://www.w3.org/2000/svg" d="M 48.9 94.9 L 48.3 94.0 L 42.5 86.9 L 28.9 86.3 L 33.6 82.5" stroke="#d95450" stroke-width="6.7" opacity="0.65" />
<path xmlns:ns0="http://www.w3.org/2000/svg" d="M 95.4 34.3 L 85.0 38.1 L 76.6 30.6 L 75.9 35.1 L 63.4 37.8" stroke="#d95450" stroke-width="5.1" opacity="0.76" />
<path xmlns:ns0="http://www.w3.org/2000/svg" d="M 104.8 92.7 L 108.3 95.3 L 122.5 87.7 L 133.5 87.3 L 137.6 78.8" stroke="#d95450" stroke-width="4.0" opacity="0.83" />
<path xmlns:ns0="http://www.w3.org/2000/svg" d="M 86.2 49.5 L 80.4 47.8 L 71.8 52.2 L 68.0 54.1 L 62.1 55.9" stroke="#d95450" stroke-width="6.9" opacity="0.94" />
<path xmlns:ns0="http://www.w3.org/2000/svg" d="M 84.2 49.8 L 94.0 55.7 L 103.2 52.4 L 109.9 53.2 L 118.0 56.5" stroke="#d95450" stroke-width="6.7" opacity="0.76" />
<path xmlns:ns0="http://www.w3.org/2000/svg" d="M -14.5 85.6 L -26.4 81.2 L -25.1 86.1 L -32.6 86.4 L -41.7 93.9" stroke="#d95450" stroke-width="6.5" opacity="0.63" />
<path xmlns:ns0="http://www.w3.org/2000/svg" d="M 69.3 69.3 L 64.6 63.0 L 51.6 63.8 L 47.4 53.1 L 39.6 48.6" stroke="#d95450" stroke-width="5.2" opacity="0.75" />
<path xmlns:ns0="http://www.w3.org/2000/svg" d="M 37.8 72.4 L 27.0 68.9 L 24.0 80.8 L 24.3 81.7 L 16.1 82.9" stroke="#d95450" stroke-width="7.9" opacity="0.74" />
<path xmlns:ns0="http://www.w3.org/2000/svg" d="M 75.6 30.6 L 69.4 36.6 L 55.7 35.6 L 53.8 40.0 L 46.6 41.5" stroke="#d95450" stroke-width="6.3" opacity="0.87" />
<path xmlns:ns0="http://www.w3.org/2000/svg" d="M 101.7 92.9 L 109.0 86.8 L 109.7 91.6 L 112.9 86.1 L 113.6 82.3" stroke="#d95450" stroke-width="7.5" opacity="0.66" />
<path xmlns:ns0="http://www.w3.org/2000/svg" d="M 44.7 56.2 L 43.5 50.7 L 36.3 55.4 L 31.6 50.5 L 29.2 48.2" stroke="#d95450" stroke-width="8.3" opacity="0.63" />
<path xmlns:ns0="http://www.w3.org/2000/svg" d="M 9.1 67.0 L 16.0 63.5 L 18.3 61.7 L 22.1 58.0 L 21.8 59.6" stroke="#d95450" stroke-width="6.4" opacity="0.83" />
<path xmlns:ns0="http://www.w3.org/2000/svg" d="M 59.7 90.2 L 53.9 85.7 L 47.4 78.2 L 35.7 77.1 L 30.6 72.8" stroke="#d95450" stroke-width="5.0" opacity="0.94" />
<path xmlns:ns0="http://www.w3.org/2000/svg" d="M 34.8 55.7 L 40.3 47.0 L 49.6 39.7 L 58.4 45.2 L 68.2 39.5" stroke="#d95450" stroke-width="6.0" opacity="0.73" />
<path xmlns:ns0="http://www.w3.org/2000/svg" d="M 93.8 70.1 L 90.5 65.4 L 83.5 66.0 L 80.1 67.1 L 74.3 78.6" stroke="#d95450" stroke-width="6.6" opacity="0.76" />
<path xmlns:ns0="http://www.w3.org/2000/svg" d="M 21.4 98.2 L 25.1 96.3 L 37.3 98.3 L 46.5 95.1 L 53.8 80.8" stroke="#d95450" stroke-width="5.3" opacity="0.75" />
<path xmlns:ns0="http://www.w3.org/2000/svg" d="M 9.1 44.0 L -0.8 41.1 L -10.1 34.1 L -13.1 32.4 L -28.5 19.7" stroke="#d95450" stroke-width="8.1" opacity="0.90" />
<path xmlns:ns0="http://www.w3.org/2000/svg" d="M 7.9 34.6 L 10.1 29.8 L 15.3 29.7 L 17.0 28.6 L 23.7 29.6" stroke="#d95450" stroke-width="3.9" opacity="0.86" />
<path xmlns:ns0="http://www.w3.org/2000/svg" d="M 73.5 90.4 L 66.3 93.7 L 56.9 102.7 L 54.1 110.4 L 46.0 106.9" stroke="#d95450" stroke-width="5.2" opacity="0.67" />
<path xmlns:ns0="http://www.w3.org/2000/svg" d="M 6.2 60.2 L 10.0 53.9 L 11.4 54.5 L 15.4 40.8 L 20.1 35.2" stroke="#d95450" stroke-width="6.5" opacity="0.89" />
<path xmlns:ns0="http://www.w3.org/2000/svg" d="M 63.0 69.5 L 64.5 67.9 L 73.5 69.9 L 68.3 75.2 L 76.5 68.7" stroke="#d95450" stroke-width="5.2" opacity="0.84" />
<path xmlns:ns0="http://www.w3.org/2000/svg" d="M 76.4 22.2 L 80.9 23.4 L 86.6 22.0 L 96.9 23.7 L 105.9 16.3" stroke="#d95450" stroke-width="6.8" opacity="0.86" />
<path xmlns:ns0="http://www.w3.org/2000/svg" d="M 20.9 94.9 L 21.9 92.9 L 29.9 88.7 L 33.1 84.6 L 41.6 74.5" stroke="#d95450" stroke-width="6.9" opacity="0.70" />
<path xmlns:ns0="http://www.w3.org/2000/svg" d="M 82.0 58.6 L 78.5 58.9 L 68.8 64.3 L 66.1 69.0 L 65.8 80.1" stroke="#d95450" stroke-width="4.6" opacity="0.71" />
<path xmlns:ns0="http://www.w3.org/2000/svg" d="M 62.0 28.4 L 68.5 34.2 L 82.8 24.5 L 93.5 30.1 L 99.4 31.6" stroke="#d95450" stroke-width="7.1" opacity="0.73" />
<path xmlns:ns0="http://www.w3.org/2000/svg" d="M 81.3 49.2 L 79.6 46.8 L 66.7 51.4 L 61.0 44.8 L 57.4 43.0" stroke="#d95450" stroke-width="7.6" opacity="0.82" />
<path xmlns:ns0="http://www.w3.org/2000/svg" d="M 25.1 23.9 L 20.7 29.4 L 12.7 24.1 L 11.3 21.8 L 7.9 22.9" stroke="#d95450" stroke-width="4.3" opacity="0.71" />
<path xmlns:ns0="http://www.w3.org/2000/svg" d="M 53.6 32.6 L 64.2 29.7 L 66.2 26.7 L 74.1 28.7 L 81.2 27.2" stroke="#d95450" stroke-width="6.5" opacity="0.86" />
<path xmlns:ns0="http://www.w3.org/2000/svg" d="M 60.7 4.7 L 65.4 5.4 L 74.7 1.4 L 83.7 0.8 L 81.0 -4.1" stroke="#d95450" stroke-width="6.8" opacity="0.70" />
<path xmlns:ns0="http://www.w3.org/2000/svg" d="M -15.0 14.8 L -24.8 11.9 L -35.8 19.7 L -41.7 13.4 L -50.8 16.5" stroke="#d95450" stroke-width="4.7" opacity="0.81" />
<path xmlns:ns0="http://www.w3.org/2000/svg" d="M 74.0 83.9 L 85.5 92.5 L 89.0 96.6 L 91.4 96.8 L 98.6 100.0" stroke="#d95450" stroke-width="4.5" opacity="0.78" />
<path xmlns:ns0="http://www.w3.org/2000/svg" d="M 3.7 69.2 L -11.0 67.2 L -12.7 59.6 L -27.9 50.9 L -41.6 46.0" stroke="#d95450" stroke-width="6.9" opacity="0.63" />
<path xmlns:ns0="http://www.w3.org/2000/svg" d="M 2.0 56.0 L 15.7 61.9 L 18.6 55.6 L 30.1 52.6 L 35.6 59.9" stroke="#d95450" stroke-width="7.6" opacity="0.95" />
<path xmlns:ns0="http://www.w3.org/2000/svg" d="M 64.3 56.2 L 74.1 49.2 L 72.5 58.5 L 83.9 51.1 L 89.4 52.2" stroke="#d95450" stroke-width="7.8" opacity="0.72" />
<path xmlns:ns0="http://www.w3.org/2000/svg" d="M -4.1 18.4 L -0.5 15.2 L 9.5 6.8 L 9.8 12.0 L 13.8 0.7" stroke="#d95450" stroke-width="4.6" opacity="0.96" />
<path xmlns:ns0="http://www.w3.org/2000/svg" d="M 6.0 72.8 L 17.5 75.3 L 23.0 76.6 L 30.4 73.8 L 33.9 81.5" stroke="#d95450" stroke-width="5.4" opacity="0.83" />
<path xmlns:ns0="http://www.w3.org/2000/svg" d="M -13.0 83.1 L -1.1 85.6 L 4.0 86.5 L 20.7 94.8 L 27.0 96.9" stroke="#d95450" stroke-width="5.3" opacity="0.95" />
<path xmlns:ns0="http://www.w3.org/2000/svg" d="M 56.3 87.0 L 51.2 87.1 L 46.1 75.5 L 35.1 76.1 L 30.1 70.8" stroke="#d95450" stroke-width="5.3" opacity="0.83" />
<path xmlns:ns0="http://www.w3.org/2000/svg" d="M 50.5 55.9 L 50.9 59.8 L 39.7 48.1 L 39.2 48.3 L 38.1 47.1" stroke="#d95450" stroke-width="6.2" opacity="0.64" />
<path xmlns:ns0="http://www.w3.org/2000/svg" d="M 52.1 89.7 L 48.1 90.4 L 39.0 96.7 L 23.2 94.5 L 20.5 95.9" stroke="#d95450" stroke-width="5.2" opacity="0.88" />
<path xmlns:ns0="http://www.w3.org/2000/svg" d="M -6.3 66.6 L -11.8 68.4 L -20.3 76.6 L -31.0 74.3 L -29.2 75.9" stroke="#d95450" stroke-width="3.8" opacity="0.73" />
<path xmlns:ns0="http://www.w3.org/2000/svg" d="M 40.8 14.6 L 27.9 13.3 L 20.3 4.9 L 20.1 4.7 L 8.3 2.3" stroke="#d95450" stroke-width="5.6" opacity="0.93" />
<path xmlns:ns0="http://www.w3.org/2000/svg" d="M 65.9 80.4 L 74.3 83.7 L 79.3 82.5 L 78.8 81.7 L 90.8 79.1" stroke="#d95450" stroke-width="3.9" opacity="0.89" />
<path xmlns:ns0="http://www.w3.org/2000/svg" d="M 23.2 98.6 L 15.2 100.8 L 9.2 104.6 L 2.5 109.1 L -10.5 112.1" stroke="#d95450" stroke-width="8.3" opacity="0.74" />
<path xmlns:ns0="http://www.w3.org/2000/svg" d="M 90.3 83.1 L 100.3 83.1 L 109.6 80.8 L 116.3 83.0 L 118.0 74.8" stroke="#d95450" stroke-width="3.9" opacity="0.79" />
<path xmlns:ns0="http://www.w3.org/2000/svg" d="M 92.1 64.7 L 104.0 59.9 L 114.8 58.2 L 122.8 49.7 L 134.6 48.6" stroke="#d95450" stroke-width="4.5" opacity="0.70" />
<path xmlns:ns0="http://www.w3.org/2000/svg" d="M 64.9 94.0 L 71.9 94.5 L 85.0 95.8 L 94.0 95.1 L 108.6 88.6" stroke="#d95450" stroke-width="7.2" opacity="0.94" />
<path xmlns:ns0="http://www.w3.org/2000/svg" d="M 10.5 89.1 L 11.9 85.9 L 24.5 86.2 L 25.5 85.2 L 32.6 82.7" stroke="#d95450" stroke-width="7.0" opacity="0.66" />
<path xmlns:ns0="http://www.w3.org/2000/svg" d="M 86.8 73.7 L 82.4 65.9 L 78.9 69.0 L 75.5 65.4 L 72.0 62.3" stroke="#d95450" stroke-width="8.3" opacity="0.65" />
<path xmlns:ns0="http://www.w3.org/2000/svg" d="M 87.4 38.3 L 90.6 44.1 L 98.3 49.8 L 98.9 54.6 L 105.0 49.3" stroke="#d95450" stroke-width="7.1" opacity="0.90" />
<path xmlns:ns0="http://www.w3.org/2000/svg" d="M 85.0 26.8 L 78.1 27.3 L 68.4 23.0 L 55.7 26.8 L 52.1 14.8" stroke="#d95450" stroke-width="6.7" opacity="0.95" />
<path xmlns:ns0="http://www.w3.org/2000/svg" d="M 102.4 48.8 L 91.1 54.6 L 87.3 60.4 L 78.4 64.8 L 66.3 68.7" stroke="#d95450" stroke-width="6.4" opacity="0.78" />
<path xmlns:ns0="http://www.w3.org/2000/svg" d="M 56.1 77.8 L 48.6 73.7 L 45.2 64.5 L 33.6 61.1 L 33.1 60.5" stroke="#d95450" stroke-width="4.3" opacity="0.67" />
<path xmlns:ns0="http://www.w3.org/2000/svg" d="M 25.8 4.5 L 30.8 7.9 L 44.9 13.0 L 48.2 5.6 L 56.1 15.2" stroke="#d95450" stroke-width="4.8" opacity="0.74" />
<path xmlns:ns0="http://www.w3.org/2000/svg" d="M 55.3 42.9 L 46.7 42.2 L 43.5 53.6 L 32.2 55.4 L 28.9 54.9" stroke="#d95450" stroke-width="5.5" opacity="0.77" />
<path xmlns:ns0="http://www.w3.org/2000/svg" d="M 90.5 47.2 L 87.8 44.2 L 76.7 39.4 L 77.2 33.0 L 74.5 34.6" stroke="#d95450" stroke-width="5.6" opacity="0.95" />
<path xmlns:ns0="http://www.w3.org/2000/svg" d="M 73.1 88.3 L 63.1 88.2 L 55.1 78.6 L 49.9 74.5 L 35.0 71.8" stroke="#d95450" stroke-width="5.6" opacity="0.82" />
<path xmlns:ns0="http://www.w3.org/2000/svg" d="M 104.8 93.4 L 97.9 91.8 L 88.1 83.8 L 80.8 79.8 L 75.5 71.7" stroke="#d95450" stroke-width="4.4" opacity="0.62" />
<path xmlns:ns0="http://www.w3.org/2000/svg" d="M -1.8 47.1 L -8.3 40.9 L -12.3 40.9 L -17.7 41.5 L -13.4 38.4" stroke="#d95450" stroke-width="8.3" opacity="0.72" />
<path xmlns:ns0="http://www.w3.org/2000/svg" d="M 103.3 101.2 L 115.6 106.9 L 118.7 104.2 L 123.8 110.4 L 131.8 109.5" stroke="#d95450" stroke-width="7.4" opacity="0.67" />
<path xmlns:ns0="http://www.w3.org/2000/svg" d="M 5.3 36.0 L 1.1 35.7 L -11.8 51.7 L -20.7 45.7 L -26.1 60.7" stroke="#d95450" stroke-width="7.0" opacity="0.69" />
<path xmlns:ns0="http://www.w3.org/2000/svg" d="M 101.7 92.7 L 107.5 95.9 L 120.9 95.7 L 119.6 100.9 L 131.5 103.4" stroke="#d95450" stroke-width="5.8" opacity="0.84" />
<path xmlns:ns0="http://www.w3.org/2000/svg" d="M -7.9 81.4 L -2.9 76.7 L 7.9 82.0 L 21.9 72.2 L 23.1 76.1" stroke="#d95450" stroke-width="7.3" opacity="0.74" />
<path xmlns:ns0="http://www.w3.org/2000/svg" d="M 81.8 32.7 L 73.6 30.3 L 66.1 33.3 L 57.7 39.5 L 57.1 42.1" stroke="#d95450" stroke-width="8.3" opacity="0.75" />
<path xmlns:ns0="http://www.w3.org/2000/svg" d="M 90.1 11.1 L 79.2 9.0 L 70.1 7.7 L 64.1 -1.9 L 54.8 -3.3" stroke="#d95450" stroke-width="4.4" opacity="0.95" />
<path xmlns:ns0="http://www.w3.org/2000/svg" d="M 58.2 90.1 L 55.2 86.6 L 41.8 81.7 L 37.8 88.9 L 29.4 78.6" stroke="#d95450" stroke-width="7.4" opacity="0.70" />
<path xmlns:ns0="http://www.w3.org/2000/svg" d="M -11.9 44.2 L -16.7 50.5 L -27.4 45.5 L -35.4 47.3 L -38.7 49.6" stroke="#d95450" stroke-width="4.0" opacity="0.86" />
<path xmlns:ns0="http://www.w3.org/2000/svg" d="M 27.5 90.7 L 33.8 86.4 L 47.0 95.2 L 50.2 90.3 L 60.5 98.4" stroke="#d95450" stroke-width="7.5" opacity="0.67" />
<path xmlns:ns0="http://www.w3.org/2000/svg" d="M -0.4 88.1 L -9.2 83.3 L -14.0 80.8 L -11.6 76.7 L -22.5 75.3" stroke="#d95450" stroke-width="5.0" opacity="0.95" />
<path xmlns:ns0="http://www.w3.org/2000/svg" d="M 98.8 56.1 L 96.1 58.7 L 86.8 65.9 L 76.9 64.1 L 74.6 67.7" stroke="#d95450" stroke-width="6.5" opacity="0.66" />
<path xmlns:ns0="http://www.w3.org/2000/svg" d="M 66.7 46.1 L 65.6 45.5 L 58.1 51.1 L 51.0 44.5 L 52.4 45.1" stroke="#d95450" stroke-width="4.1" opacity="0.74" />
<path xmlns:ns0="http://www.w3.org/2000/svg" d="M 9.7 25.7 L -3.5 18.0 L -11.0 23.0 L -22.2 10.0 L -25.6 7.1" stroke="#d95450" stroke-width="5.8" opacity="0.89" />
<path xmlns:ns0="http://www.w3.org/2000/svg" d="M 37.8 60.6 L 43.0 57.3 L 54.2 60.6 L 65.8 54.1 L 68.3 54.7" stroke="#d95450" stroke-width="8.0" opacity="0.71" />
<path xmlns:ns0="http://www.w3.org/2000/svg" d="M 7.2 31.6 L 21.5 35.8 L 31.7 42.3 L 36.5 40.3 L 45.3 38.8" stroke="#d95450" stroke-width="7.0" opacity="0.62" />
<path xmlns:ns0="http://www.w3.org/2000/svg" d="M 55.2 66.1 L 60.9 67.6 L 71.0 58.4 L 82.9 57.1 L 96.2 56.2" stroke="#d95450" stroke-width="7.6" opacity="0.79" />
<path xmlns:ns0="http://www.w3.org/2000/svg" d="M 30.7 37.0 L 25.2 38.3 L 20.0 30.8 L 12.9 24.9 L -0.1 31.0" stroke="#d95450" stroke-width="7.6" opacity="0.83" />
<path xmlns:ns0="http://www.w3.org/2000/svg" d="M 43.6 90.1 l 2.3 4.0" stroke="#d95450" stroke-width="0.9" opacity="0.37" />
<path xmlns:ns0="http://www.w3.org/2000/svg" d="M 18.9 33.7 l 5.8 1.8" stroke="#d95450" stroke-width="1.7" opacity="0.48" />
<path xmlns:ns0="http://www.w3.org/2000/svg" d="M 18.5 30.0 l 4.6 -0.4" stroke="#d95450" stroke-width="0.8" opacity="0.35" />
<path xmlns:ns0="http://www.w3.org/2000/svg" d="M 16.9 78.1 l 5.7 4.3" stroke="#d95450" stroke-width="2.4" opacity="0.70" />
<path xmlns:ns0="http://www.w3.org/2000/svg" d="M 36.9 92.0 l 3.8 -0.9" stroke="#d95450" stroke-width="1.5" opacity="0.48" />
<path xmlns:ns0="http://www.w3.org/2000/svg" d="M 48.5 94.8 l -6.3 -0.9" stroke="#d95450" stroke-width="1.4" opacity="0.40" />
<path xmlns:ns0="http://www.w3.org/2000/svg" d="M 73.0 20.4 l -6.6 1.0" stroke="#d95450" stroke-width="1.3" opacity="0.54" />
<path xmlns:ns0="http://www.w3.org/2000/svg" d="M 41.7 80.4 l -3.9 4.9" stroke="#d95450" stroke-width="0.8" opacity="0.32" />
<path xmlns:ns0="http://www.w3.org/2000/svg" d="M 66.0 70.2 l -0.9 -4.2" stroke="#d95450" stroke-width="2.0" opacity="0.37" />
<path xmlns:ns0="http://www.w3.org/2000/svg" d="M 55.8 45.6 l -3.3 0.1" stroke="#d95450" stroke-width="2.5" opacity="0.61" />
<path xmlns:ns0="http://www.w3.org/2000/svg" d="M 51.6 76.1 l -2.3 1.3" stroke="#d95450" stroke-width="1.0" opacity="0.38" />
<path xmlns:ns0="http://www.w3.org/2000/svg" d="M 59.1 67.1 l -3.1 0.4" stroke="#d95450" stroke-width="1.2" opacity="0.34" />
<path xmlns:ns0="http://www.w3.org/2000/svg" d="M 39.8 78.7 l -3.8 4.7" stroke="#d95450" stroke-width="2.1" opacity="0.41" />
<path xmlns:ns0="http://www.w3.org/2000/svg" d="M 29.3 52.5 l 2.0 -1.1" stroke="#d95450" stroke-width="1.4" opacity="0.73" />
<path xmlns:ns0="http://www.w3.org/2000/svg" d="M 59.3 67.8 l -0.5 -1.6" stroke="#d95450" stroke-width="2.4" opacity="0.47" />
<path xmlns:ns0="http://www.w3.org/2000/svg" d="M 57.0 36.0 l -7.3 -1.8" stroke="#d95450" stroke-width="2.5" opacity="0.57" />
<path xmlns:ns0="http://www.w3.org/2000/svg" d="M 9.3 60.3 l -7.5 -3.5" stroke="#d95450" stroke-width="1.8" opacity="0.45" />
<path xmlns:ns0="http://www.w3.org/2000/svg" d="M 84.1 85.8 l -3.6 2.7" stroke="#d95450" stroke-width="2.5" opacity="0.45" />
<path xmlns:ns0="http://www.w3.org/2000/svg" d="M 68.2 66.1 l -1.7 -4.3" stroke="#d95450" stroke-width="0.6" opacity="0.49" />
<path xmlns:ns0="http://www.w3.org/2000/svg" d="M 18.7 86.3 l 7.0 2.2" stroke="#d95450" stroke-width="2.2" opacity="0.44" />
<path xmlns:ns0="http://www.w3.org/2000/svg" d="M 10.7 18.1 l 5.8 1.7" stroke="#d95450" stroke-width="1.9" opacity="0.68" />
<path xmlns:ns0="http://www.w3.org/2000/svg" d="M 69.5 29.0 l -2.1 -1.9" stroke="#d95450" stroke-width="1.7" opacity="0.32" />
<path xmlns:ns0="http://www.w3.org/2000/svg" d="M 35.4 55.9 l -4.5 -4.8" stroke="#d95450" stroke-width="0.6" opacity="0.72" />
<path xmlns:ns0="http://www.w3.org/2000/svg" d="M 70.0 57.5 l -7.0 4.1" stroke="#d95450" stroke-width="1.9" opacity="0.58" />
<path xmlns:ns0="http://www.w3.org/2000/svg" d="M 50.0 29.2 l 5.4 -4.2" stroke="#d95450" stroke-width="1.0" opacity="0.56" />
<path xmlns:ns0="http://www.w3.org/2000/svg" d="M 31.6 54.3 l -7.1 0.0" stroke="#d95450" stroke-width="2.2" opacity="0.36" />
<path xmlns:ns0="http://www.w3.org/2000/svg" d="M 53.2 91.5 l 6.6 -4.7" stroke="#d95450" stroke-width="2.3" opacity="0.32" />
<path xmlns:ns0="http://www.w3.org/2000/svg" d="M 77.4 20.6 l 1.9 2.3" stroke="#d95450" stroke-width="1.7" opacity="0.64" />
<path xmlns:ns0="http://www.w3.org/2000/svg" d="M 81.9 60.2 l 7.8 -2.0" stroke="#d95450" stroke-width="1.2" opacity="0.31" />
<path xmlns:ns0="http://www.w3.org/2000/svg" d="M 36.7 34.5 l 6.6 0.3" stroke="#d95450" stroke-width="0.8" opacity="0.55" />
<path xmlns:ns0="http://www.w3.org/2000/svg" d="M 27.1 88.1 l -3.3 2.4" stroke="#d95450" stroke-width="1.9" opacity="0.61" />
<path xmlns:ns0="http://www.w3.org/2000/svg" d="M 31.8 12.8 l -2.0 1.0" stroke="#d95450" stroke-width="1.8" opacity="0.59" />
<path xmlns:ns0="http://www.w3.org/2000/svg" d="M 30.7 56.4 l -0.6 1.8" stroke="#d95450" stroke-width="0.7" opacity="0.40" />
<path xmlns:ns0="http://www.w3.org/2000/svg" d="M 60.1 66.4 l -1.6 1.6" stroke="#d95450" stroke-width="2.0" opacity="0.51" />
<path xmlns:ns0="http://www.w3.org/2000/svg" d="M 89.3 47.5 l -4.5 4.7" stroke="#d95450" stroke-width="1.7" opacity="0.43" />
<path xmlns:ns0="http://www.w3.org/2000/svg" d="M 41.1 85.0 l 6.0 -4.2" stroke="#d95450" stroke-width="1.1" opacity="0.67" />
<path xmlns:ns0="http://www.w3.org/2000/svg" d="M 81.8 62.1 l -0.7 -4.0" stroke="#d95450" stroke-width="1.1" opacity="0.58" />
<path xmlns:ns0="http://www.w3.org/2000/svg" d="M 81.7 62.4 l -0.1 -0.5" stroke="#d95450" stroke-width="1.7" opacity="0.60" />
<path xmlns:ns0="http://www.w3.org/2000/svg" d="M 45.7 43.8 l -2.4 -4.8" stroke="#d95450" stroke-width="1.9" opacity="0.38" />
<path xmlns:ns0="http://www.w3.org/2000/svg" d="M 25.3 19.0 l -6.3 0.1" stroke="#d95450" stroke-width="1.5" opacity="0.60" />
<path xmlns:ns0="http://www.w3.org/2000/svg" d="M 12.3 11.3 l 1.6 2.9" stroke="#d95450" stroke-width="2.0" opacity="0.40" />
<path xmlns:ns0="http://www.w3.org/2000/svg" d="M 6.3 74.9 l -3.5 -2.4" stroke="#d95450" stroke-width="0.9" opacity="0.66" />
<path xmlns:ns0="http://www.w3.org/2000/svg" d="M 32.0 59.3 l 2.7 4.7" stroke="#d95450" stroke-width="1.2" opacity="0.60" />
<path xmlns:ns0="http://www.w3.org/2000/svg" d="M 8.4 92.0 l -7.7 2.0" stroke="#d95450" stroke-width="1.9" opacity="0.64" />
<path xmlns:ns0="http://www.w3.org/2000/svg" d="M 10.3 42.7 l 5.5 -4.5" stroke="#d95450" stroke-width="2.0" opacity="0.37" />
<path xmlns:ns0="http://www.w3.org/2000/svg" d="M 13.3 40.9 l 3.3 -3.0" stroke="#d95450" stroke-width="1.4" opacity="0.64" />
<path xmlns:ns0="http://www.w3.org/2000/svg" d="M 57.7 40.7 l 6.4 0.7" stroke="#d95450" stroke-width="1.4" opacity="0.51" />
<path xmlns:ns0="http://www.w3.org/2000/svg" d="M 28.6 71.5 l -1.6 -3.3" stroke="#d95450" stroke-width="1.1" opacity="0.52" />
<path xmlns:ns0="http://www.w3.org/2000/svg" d="M 30.2 69.6 l -1.9 0.7" stroke="#d95450" stroke-width="1.2" opacity="0.57" />
<path xmlns:ns0="http://www.w3.org/2000/svg" d="M 79.8 53.2 l 5.3 3.7" stroke="#d95450" stroke-width="0.6" opacity="0.73" />
<path xmlns:ns0="http://www.w3.org/2000/svg" d="M 23.9 88.7 l -2.2 -0.2" stroke="#d95450" stroke-width="0.6" opacity="0.72" />
<path xmlns:ns0="http://www.w3.org/2000/svg" d="M 48.3 26.8 l -1.9 5.0" stroke="#d95450" stroke-width="2.5" opacity="0.62" />
<path xmlns:ns0="http://www.w3.org/2000/svg" d="M 22.7 24.7 l -1.6 0.3" stroke="#d95450" stroke-width="0.8" opacity="0.61" />
<path xmlns:ns0="http://www.w3.org/2000/svg" d="M 80.0 30.4 l -7.4 -2.2" stroke="#d95450" stroke-width="1.9" opacity="0.62" />
<path xmlns:ns0="http://www.w3.org/2000/svg" d="M 56.6 14.1 l 3.2 -0.4" stroke="#d95450" stroke-width="1.3" opacity="0.70" />
<path xmlns:ns0="http://www.w3.org/2000/svg" d="M 75.5 15.4 l -1.5 -2.8" stroke="#d95450" stroke-width="1.7" opacity="0.31" />
<path xmlns:ns0="http://www.w3.org/2000/svg" d="M 67.7 34.5 l -3.7 -1.9" stroke="#d95450" stroke-width="1.1" opacity="0.44" />
<path xmlns:ns0="http://www.w3.org/2000/svg" d="M 57.8 39.6 l 2.9 4.1" stroke="#d95450" stroke-width="1.7" opacity="0.61" />
<path xmlns:ns0="http://www.w3.org/2000/svg" d="M 57.9 70.2 l -4.1 -1.6" stroke="#d95450" stroke-width="2.1" opacity="0.31" />
<path xmlns:ns0="http://www.w3.org/2000/svg" d="M 51.1 13.6 l -6.1 -3.3" stroke="#d95450" stroke-width="0.7" opacity="0.55" />
<path xmlns:ns0="http://www.w3.org/2000/svg" d="M 35.6 37.1 l 5.7 2.5" stroke="#d95450" stroke-width="1.4" opacity="0.32" />
<path xmlns:ns0="http://www.w3.org/2000/svg" d="M 58.1 30.9 l 4.4 -4.2" stroke="#d95450" stroke-width="1.1" opacity="0.31" />
<path xmlns:ns0="http://www.w3.org/2000/svg" d="M 18.1 7.0 l 4.1 -4.8" stroke="#d95450" stroke-width="2.3" opacity="0.73" />
<path xmlns:ns0="http://www.w3.org/2000/svg" d="M 61.1 67.8 l -5.1 -1.8" stroke="#d95450" stroke-width="2.0" opacity="0.57" />
<path xmlns:ns0="http://www.w3.org/2000/svg" d="M 42.1 38.2 l 6.8 -2.2" stroke="#d95450" stroke-width="1.4" opacity="0.41" />
<path xmlns:ns0="http://www.w3.org/2000/svg" d="M 10.0 94.8 l 2.6 -0.6" stroke="#d95450" stroke-width="0.7" opacity="0.36" />
<path xmlns:ns0="http://www.w3.org/2000/svg" d="M 11.2 44.6 l -6.7 2.3" stroke="#d95450" stroke-width="1.6" opacity="0.38" />
<path xmlns:ns0="http://www.w3.org/2000/svg" d="M 23.1 26.8 l -5.3 2.5" stroke="#d95450" stroke-width="2.3" opacity="0.64" />
<path xmlns:ns0="http://www.w3.org/2000/svg" d="M 30.3 19.8 l 2.3 1.4" stroke="#d95450" stroke-width="0.7" opacity="0.48" />
<path xmlns:ns0="http://www.w3.org/2000/svg" d="M 27.3 8.8 l -3.4 -3.9" stroke="#d95450" stroke-width="2.4" opacity="0.47" />
<path xmlns:ns0="http://www.w3.org/2000/svg" d="M 52.8 18.0 l 5.7 0.5" stroke="#d95450" stroke-width="1.5" opacity="0.69" />
<path xmlns:ns0="http://www.w3.org/2000/svg" d="M 63.2 54.5 l 3.8 -0.4" stroke="#d95450" stroke-width="1.2" opacity="0.45" />
<path xmlns:ns0="http://www.w3.org/2000/svg" d="M 79.5 38.6 l 2.5 2.2" stroke="#d95450" stroke-width="1.6" opacity="0.69" />
<path xmlns:ns0="http://www.w3.org/2000/svg" d="M 46.9 43.6 l 4.7 0.3" stroke="#d95450" stroke-width="2.3" opacity="0.40" />
<path xmlns:ns0="http://www.w3.org/2000/svg" d="M 32.6 53.2 l 0.6 -4.6" stroke="#d95450" stroke-width="1.9" opacity="0.50" />
<path xmlns:ns0="http://www.w3.org/2000/svg" d="M 43.9 26.7 l 3.5 -2.0" stroke="#d95450" stroke-width="1.8" opacity="0.43" />
<path xmlns:ns0="http://www.w3.org/2000/svg" d="M 69.0 46.2 l -3.8 -3.5" stroke="#d95450" stroke-width="0.9" opacity="0.54" />
<path xmlns:ns0="http://www.w3.org/2000/svg" d="M 69.0 9.6 l -6.0 0.9" stroke="#d95450" stroke-width="2.5" opacity="0.40" />
<path xmlns:ns0="http://www.w3.org/2000/svg" d="M 23.6 56.5 l -1.7 0.7" stroke="#d95450" stroke-width="0.8" opacity="0.45" />
<path xmlns:ns0="http://www.w3.org/2000/svg" d="M 16.6 71.2 l 7.0 4.1" stroke="#d95450" stroke-width="1.5" opacity="0.50" />
<path xmlns:ns0="http://www.w3.org/2000/svg" d="M 83.7 36.8 l -4.3 1.3" stroke="#d95450" stroke-width="1.6" opacity="0.49" />
<path xmlns:ns0="http://www.w3.org/2000/svg" d="M 21.6 64.3 l 6.0 3.4" stroke="#d95450" stroke-width="0.6" opacity="0.50" />
<path xmlns:ns0="http://www.w3.org/2000/svg" d="M 82.7 87.1 l 3.5 3.9" stroke="#d95450" stroke-width="1.9" opacity="0.39" />
<path xmlns:ns0="http://www.w3.org/2000/svg" d="M 19.7 43.6 l -6.0 -3.2" stroke="#d95450" stroke-width="1.0" opacity="0.61" />
<path xmlns:ns0="http://www.w3.org/2000/svg" d="M 28.0 90.7 l 3.3 -3.6" stroke="#d95450" stroke-width="0.8" opacity="0.63" />
<path xmlns:ns0="http://www.w3.org/2000/svg" d="M 35.6 39.3 l -2.9 -3.2" stroke="#d95450" stroke-width="0.6" opacity="0.67" />
<path xmlns:ns0="http://www.w3.org/2000/svg" d="M 6.8 5.9 l -2.7 -1.6" stroke="#d95450" stroke-width="0.6" opacity="0.35" />
<path xmlns:ns0="http://www.w3.org/2000/svg" d="M 72.8 7.6 l -5.6 4.3" stroke="#d95450" stroke-width="2.0" opacity="0.64" />
<path xmlns:ns0="http://www.w3.org/2000/svg" d="M 10.9 42.7 l -1.7 -2.2" stroke="#d95450" stroke-width="1.3" opacity="0.54" />
<path xmlns:ns0="http://www.w3.org/2000/svg" d="M 52.9 38.8 l -5.1 -0.6" stroke="#d95450" stroke-width="1.7" opacity="0.55" />
<path xmlns:ns0="http://www.w3.org/2000/svg" d="M 70.9 75.8 l 1.6 -4.4" stroke="#d95450" stroke-width="2.2" opacity="0.74" />
<path xmlns:ns0="http://www.w3.org/2000/svg" d="M 21.7 88.8 l -5.2 3.2" stroke="#d95450" stroke-width="1.5" opacity="0.54" />
<path xmlns:ns0="http://www.w3.org/2000/svg" d="M 16.6 79.7 l -7.8 4.8" stroke="#d95450" stroke-width="1.2" opacity="0.75" />
<path xmlns:ns0="http://www.w3.org/2000/svg" d="M 56.3 49.2 l 5.6 2.3" stroke="#d95450" stroke-width="1.9" opacity="0.47" />
<path xmlns:ns0="http://www.w3.org/2000/svg" d="M 86.2 22.4 l 2.7 1.2" stroke="#d95450" stroke-width="1.6" opacity="0.69" />
<path xmlns:ns0="http://www.w3.org/2000/svg" d="M 83.2 23.5 l 6.6 0.6" stroke="#d95450" stroke-width="1.3" opacity="0.38" />
<path xmlns:ns0="http://www.w3.org/2000/svg" d="M 32.9 67.7 l -5.9 0.9" stroke="#d95450" stroke-width="2.3" opacity="0.42" />
<path xmlns:ns0="http://www.w3.org/2000/svg" d="M 77.4 88.4 l -5.1 3.8" stroke="#d95450" stroke-width="0.8" opacity="0.60" />
<path xmlns:ns0="http://www.w3.org/2000/svg" d="M 81.0 26.4 l -6.8 -0.3" stroke="#d95450" stroke-width="0.9" opacity="0.66" />
<path xmlns:ns0="http://www.w3.org/2000/svg" d="M 55.3 84.1 l -2.2 4.8" stroke="#d95450" stroke-width="1.5" opacity="0.72" />
</g></g></g></svg>